<svg width="65" height="65" viewBox="0 0 65 65" fill="none" xmlns="http://www.w3.org/2000/svg">
<g id="Up Circle 1">
<g id="Vector">
<path d="M37.7991 29.2494C37.7948 29.2101 37.7904 29.1718 37.7858 29.1345L27.5678 39.3525C26.9576 39.9627 25.9683 39.9627 25.3581 39.3525C24.7479 38.7423 24.7479 37.753 25.3581 37.1428L35.5761 26.9248C35.5388 26.9202 35.5005 26.9157 35.4612 26.9114C34.6043 26.8179 33.4716 26.8205 31.7853 26.8281L27.6484 26.8465C26.7855 26.8504 26.0828 26.1539 26.0789 25.291C26.0751 24.4281 26.7715 23.7254 27.6345 23.7216L31.8616 23.7027C33.4343 23.6956 34.7459 23.6897 35.8005 23.8049C36.9066 23.9257 37.926 24.1957 38.8116 24.881C39.1926 25.1759 39.5347 25.5179 39.8295 25.899C40.5149 26.7846 40.7849 27.804 40.9057 28.9101C41.0208 29.9646 41.0149 31.2762 41.0079 32.8488L40.989 37.0761C40.9852 37.9391 40.2825 38.6355 39.4196 38.6316C38.5566 38.6278 37.8602 37.9251 37.8641 37.0622L37.8825 32.9253C37.89 31.239 37.8927 30.1063 37.7991 29.2494Z" fill="#DADADA"/>
<path fill-rule="evenodd" clip-rule="evenodd" d="M48.1917 16.5189C39.4456 7.77275 25.2653 7.77275 16.5192 16.5189C7.7731 25.265 7.7731 39.4452 16.5192 48.1914C25.2653 56.9375 39.4456 56.9375 48.1917 48.1914C56.9378 39.4452 56.9378 25.265 48.1917 16.5189ZM18.7289 18.7286C26.2547 11.2028 38.4563 11.2028 45.982 18.7286C53.5077 26.2543 53.5077 38.4559 45.982 45.9816C38.4563 53.5074 26.2547 53.5074 18.7289 45.9816C11.2032 38.4559 11.2032 26.2543 18.7289 18.7286Z" fill="#DADADA"/>
</g>
</g>
</svg>
