<svg width="29" height="29" viewBox="0 0 29 29" fill="none" xmlns="http://www.w3.org/2000/svg">
<g id="Category">
<g id="Vector">
<path fill-rule="evenodd" clip-rule="evenodd" d="M8.23622 0.315002C7.74123 0.281229 7.1383 0.281239 6.41606 0.28125H6.33397C5.61173 0.281239 5.00877 0.281229 4.51378 0.315002C3.9985 0.35016 3.51177 0.425955 3.03988 0.621415C1.94492 1.07497 1.07497 1.94492 0.621415 3.03988C0.425955 3.51177 0.35016 3.9985 0.315002 4.51378C0.281229 5.00877 0.281239 5.61171 0.28125 6.33395V6.41603C0.281239 7.13827 0.281229 7.74123 0.315002 8.23622C0.35016 8.75151 0.425955 9.23824 0.621415 9.71012C1.07497 10.8051 1.94492 11.675 3.03988 12.1286C3.51177 12.324 3.9985 12.3998 4.51378 12.435C5.00878 12.4688 5.61171 12.4688 6.33396 12.4688H6.41605C7.13829 12.4688 7.74123 12.4688 8.23622 12.435C8.75151 12.3998 9.23824 12.324 9.71012 12.1286C10.8051 11.675 11.675 10.8051 12.1286 9.71012C12.324 9.23824 12.3998 8.75151 12.435 8.23622C12.4688 7.74123 12.4688 7.13829 12.4688 6.41605V6.33396C12.4688 5.61171 12.4688 5.00878 12.435 4.51378C12.3998 3.9985 12.324 3.51177 12.1286 3.03988C11.675 1.94492 10.8051 1.07497 9.71012 0.621415C9.23824 0.425955 8.75151 0.35016 8.23622 0.315002ZM3.97268 2.87337C4.09805 2.82144 4.28853 2.77354 4.67971 2.74685C5.08184 2.71941 5.60117 2.71875 6.375 2.71875C7.14883 2.71875 7.66817 2.71941 8.0703 2.74685C8.46148 2.77354 8.65195 2.82144 8.77733 2.87337C9.27504 3.07953 9.67047 3.47496 9.87663 3.97268C9.92856 4.09805 9.97646 4.28853 10.0032 4.67971C10.0306 5.08184 10.0313 5.60117 10.0313 6.375C10.0313 7.14883 10.0306 7.66817 10.0032 8.0703C9.97646 8.46148 9.92856 8.65195 9.87663 8.77733C9.67047 9.27504 9.27504 9.67047 8.77733 9.87663C8.65195 9.92856 8.46148 9.97646 8.0703 10.0032C7.66817 10.0306 7.14883 10.0313 6.375 10.0313C5.60117 10.0313 5.08184 10.0306 4.67971 10.0032C4.28853 9.97646 4.09805 9.92856 3.97268 9.87663C3.47496 9.67047 3.07953 9.27504 2.87337 8.77733C2.82144 8.65195 2.77354 8.46148 2.74685 8.0703C2.71941 7.66817 2.71875 7.14883 2.71875 6.375C2.71875 5.60117 2.71941 5.08184 2.74685 4.67971C2.77354 4.28853 2.82144 4.09805 2.87337 3.97268C3.07953 3.47496 3.47496 3.07953 3.97268 2.87337Z" fill="#DADADA"/>
<path fill-rule="evenodd" clip-rule="evenodd" d="M24.4862 0.315002C23.9912 0.281229 23.3883 0.281239 22.6661 0.28125H22.584C21.8617 0.281239 21.2588 0.281229 20.7638 0.315002C20.2485 0.35016 19.7618 0.425955 19.2899 0.621415C18.1949 1.07497 17.325 1.94491 16.8714 3.03988C16.676 3.51177 16.6002 3.9985 16.565 4.51378C16.5312 5.00878 16.5312 5.61171 16.5313 6.33396V6.41604C16.5312 7.13829 16.5312 7.74123 16.565 8.23622C16.6002 8.75151 16.676 9.23824 16.8714 9.71012C17.325 10.8051 18.1949 11.675 19.2899 12.1286C19.7618 12.324 20.2485 12.3998 20.7638 12.435C21.2588 12.4688 21.8617 12.4688 22.584 12.4688H22.666C23.3883 12.4688 23.9912 12.4688 24.4862 12.435C25.0015 12.3998 25.4882 12.324 25.9601 12.1286C27.0551 11.675 27.925 10.8051 28.3786 9.71012C28.574 9.23824 28.6498 8.75151 28.685 8.23622C28.7188 7.74123 28.7188 7.13829 28.7188 6.41605V6.33396C28.7188 5.61171 28.7188 5.00878 28.685 4.51378C28.6498 3.9985 28.574 3.51177 28.3786 3.03988C27.925 1.94491 27.0551 1.07497 25.9601 0.621415C25.4882 0.425955 25.0015 0.35016 24.4862 0.315002ZM20.2227 2.87337C20.348 2.82144 20.5385 2.77354 20.9297 2.74685C21.3318 2.71941 21.8512 2.71875 22.625 2.71875C23.3988 2.71875 23.9182 2.71941 24.3203 2.74685C24.7115 2.77354 24.902 2.82144 25.0273 2.87337C25.525 3.07953 25.9205 3.47496 26.1266 3.97268C26.1786 4.09805 26.2265 4.28853 26.2532 4.67971C26.2806 5.08184 26.2812 5.60117 26.2812 6.375C26.2812 7.14883 26.2806 7.66817 26.2532 8.0703C26.2265 8.46148 26.1786 8.65195 26.1266 8.77733C25.9205 9.27504 25.525 9.67047 25.0273 9.87663C24.902 9.92856 24.7115 9.97646 24.3203 10.0032C23.9182 10.0306 23.3988 10.0313 22.625 10.0313C21.8512 10.0313 21.3318 10.0306 20.9297 10.0032C20.5385 9.97646 20.348 9.92856 20.2227 9.87663C19.725 9.67047 19.3295 9.27504 19.1234 8.77733C19.0714 8.65195 19.0235 8.46148 18.9968 8.0703C18.9694 7.66817 18.9688 7.14883 18.9688 6.375C18.9688 5.60117 18.9694 5.08184 18.9968 4.67971C19.0235 4.28853 19.0714 4.09805 19.1234 3.97268C19.3295 3.47496 19.725 3.07953 20.2227 2.87337Z" fill="#DADADA"/>
<path fill-rule="evenodd" clip-rule="evenodd" d="M8.23622 16.565C7.74123 16.5312 7.13829 16.5312 6.41604 16.5313H6.33396C5.61171 16.5312 5.00878 16.5312 4.51378 16.565C3.9985 16.6002 3.51177 16.676 3.03988 16.8714C1.94491 17.325 1.07497 18.1949 0.621415 19.2899C0.425955 19.7618 0.35016 20.2485 0.315002 20.7638C0.281229 21.2588 0.281239 21.8617 0.28125 22.5839V22.666C0.281239 23.3883 0.281229 23.9912 0.315002 24.4862C0.35016 25.0015 0.425955 25.4882 0.621415 25.9601C1.07497 27.0551 1.94491 27.925 3.03988 28.3786C3.51177 28.574 3.9985 28.6498 4.51378 28.685C5.00878 28.7188 5.61171 28.7188 6.33396 28.7188H6.41605C7.13829 28.7188 7.74123 28.7188 8.23622 28.685C8.75151 28.6498 9.23824 28.574 9.71012 28.3786C10.8051 27.925 11.675 27.0551 12.1286 25.9601C12.324 25.4882 12.3998 25.0015 12.435 24.4862C12.4688 23.9912 12.4688 23.3883 12.4688 22.666V22.584C12.4688 21.8617 12.4688 21.2588 12.435 20.7638C12.3998 20.2485 12.324 19.7618 12.1286 19.2899C11.675 18.1949 10.8051 17.325 9.71012 16.8714C9.23824 16.676 8.75151 16.6002 8.23622 16.565ZM3.97268 19.1234C4.09805 19.0714 4.28853 19.0235 4.67971 18.9968C5.08184 18.9694 5.60117 18.9688 6.375 18.9688C7.14883 18.9688 7.66817 18.9694 8.0703 18.9968C8.46148 19.0235 8.65195 19.0714 8.77733 19.1234C9.27504 19.3295 9.67047 19.725 9.87663 20.2227C9.92856 20.348 9.97646 20.5385 10.0032 20.9297C10.0306 21.3318 10.0313 21.8512 10.0313 22.625C10.0313 23.3988 10.0306 23.9182 10.0032 24.3203C9.97646 24.7115 9.92856 24.902 9.87663 25.0273C9.67047 25.525 9.27504 25.9205 8.77733 26.1266C8.65195 26.1786 8.46148 26.2265 8.0703 26.2532C7.66817 26.2806 7.14883 26.2812 6.375 26.2812C5.60117 26.2812 5.08184 26.2806 4.67971 26.2532C4.28853 26.2265 4.09805 26.1786 3.97268 26.1266C3.47496 25.9205 3.07953 25.525 2.87337 25.0273C2.82144 24.902 2.77354 24.7115 2.74685 24.3203C2.71941 23.9182 2.71875 23.3988 2.71875 22.625C2.71875 21.8512 2.71941 21.3318 2.74685 20.9297C2.77354 20.5385 2.82144 20.348 2.87337 20.2227C3.07953 19.725 3.47496 19.3295 3.97268 19.1234Z" fill="#DADADA"/>
<path fill-rule="evenodd" clip-rule="evenodd" d="M24.4862 16.565C23.9912 16.5312 23.3883 16.5312 22.666 16.5313H22.584C21.8617 16.5312 21.2588 16.5312 20.7638 16.565C20.2485 16.6002 19.7618 16.676 19.2899 16.8714C18.1949 17.325 17.325 18.1949 16.8714 19.2899C16.676 19.7618 16.6002 20.2485 16.565 20.7638C16.5312 21.2588 16.5312 21.8617 16.5313 22.584V22.666C16.5312 23.3883 16.5312 23.9912 16.565 24.4862C16.6002 25.0015 16.676 25.4882 16.8714 25.9601C17.325 27.0551 18.1949 27.925 19.2899 28.3786C19.7618 28.574 20.2485 28.6498 20.7638 28.685C21.2588 28.7188 21.8617 28.7188 22.584 28.7188H22.666C23.3883 28.7188 23.9912 28.7188 24.4862 28.685C25.0015 28.6498 25.4882 28.574 25.9601 28.3786C27.0551 27.925 27.925 27.0551 28.3786 25.9601C28.574 25.4882 28.6498 25.0015 28.685 24.4862C28.7188 23.9912 28.7188 23.3883 28.7188 22.666V22.584C28.7188 21.8617 28.7188 21.2588 28.685 20.7638C28.6498 20.2485 28.574 19.7618 28.3786 19.2899C27.925 18.1949 27.0551 17.325 25.9601 16.8714C25.4882 16.676 25.0015 16.6002 24.4862 16.565ZM20.2227 19.1234C20.348 19.0714 20.5385 19.0235 20.9297 18.9968C21.3318 18.9694 21.8512 18.9688 22.625 18.9688C23.3988 18.9688 23.9182 18.9694 24.3203 18.9968C24.7115 19.0235 24.902 19.0714 25.0273 19.1234C25.525 19.3295 25.9205 19.725 26.1266 20.2227C26.1786 20.348 26.2265 20.5385 26.2532 20.9297C26.2806 21.3318 26.2812 21.8512 26.2812 22.625C26.2812 23.3988 26.2806 23.9182 26.2532 24.3203C26.2265 24.7115 26.1786 24.902 26.1266 25.0273C25.9205 25.525 25.525 25.9205 25.0273 26.1266C24.902 26.1786 24.7115 26.2265 24.3203 26.2532C23.9182 26.2806 23.3988 26.2812 22.625 26.2812C21.8512 26.2812 21.3318 26.2806 20.9297 26.2532C20.5385 26.2265 20.348 26.1786 20.2227 26.1266C19.725 25.9205 19.3295 25.525 19.1234 25.0273C19.0714 24.902 19.0235 24.7115 18.9968 24.3203C18.9694 23.9182 18.9688 23.3988 18.9688 22.625C18.9688 21.8512 18.9694 21.3318 18.9968 20.9297C19.0235 20.5385 19.0714 20.348 19.1234 20.2227C19.3295 19.725 19.725 19.3295 20.2227 19.1234Z" fill="#DADADA"/>
</g>
</g>
</svg>
