<svg width="18" height="20" viewBox="0 0 18 20" fill="none" xmlns="http://www.w3.org/2000/svg">
<g id="Filter 5">
<g id="Vector">
<path fill-rule="evenodd" clip-rule="evenodd" d="M3 0.25C1.48122 0.25 0.25 1.48122 0.25 3C0.25 4.51878 1.48122 5.75 3 5.75C4.51878 5.75 5.75 4.51878 5.75 3C5.75 1.48122 4.51878 0.25 3 0.25ZM1.75 3C1.75 2.30964 2.30964 1.75 3 1.75C3.69036 1.75 4.25 2.30964 4.25 3C4.25 3.69036 3.69036 4.25 3 4.25C2.30964 4.25 1.75 3.69036 1.75 3Z" fill="#DADADA"/>
<path d="M9 2.25C8.58579 2.25 8.25 2.58579 8.25 3C8.25 3.41421 8.58579 3.75 9 3.75L17 3.75C17.4142 3.75 17.75 3.41421 17.75 3C17.75 2.58579 17.4142 2.25 17 2.25L9 2.25Z" fill="#DADADA"/>
<path fill-rule="evenodd" clip-rule="evenodd" d="M15 7.25C13.4812 7.25 12.25 8.48122 12.25 10C12.25 11.5188 13.4812 12.75 15 12.75C16.5188 12.75 17.75 11.5188 17.75 10C17.75 8.48122 16.5188 7.25 15 7.25ZM13.75 10C13.75 9.30964 14.3096 8.75 15 8.75C15.6904 8.75 16.25 9.30964 16.25 10C16.25 10.6904 15.6904 11.25 15 11.25C14.3096 11.25 13.75 10.6904 13.75 10Z" fill="#DADADA"/>
<path d="M1 9.25C0.585787 9.25 0.25 9.58579 0.25 10C0.25 10.4142 0.585786 10.75 1 10.75L9 10.75C9.41421 10.75 9.75 10.4142 9.75 10C9.75 9.58579 9.41421 9.25 9 9.25L1 9.25Z" fill="#DADADA"/>
<path fill-rule="evenodd" clip-rule="evenodd" d="M3 14.25C1.48122 14.25 0.25 15.4812 0.25 17C0.25 18.5188 1.48122 19.75 3 19.75C4.51878 19.75 5.75 18.5188 5.75 17C5.75 15.4812 4.51878 14.25 3 14.25ZM1.75 17C1.75 16.3096 2.30964 15.75 3 15.75C3.69036 15.75 4.25 16.3096 4.25 17C4.25 17.6904 3.69036 18.25 3 18.25C2.30964 18.25 1.75 17.6904 1.75 17Z" fill="#DADADA"/>
<path d="M9 16.25C8.58579 16.25 8.25 16.5858 8.25 17C8.25 17.4142 8.58579 17.75 9 17.75H17C17.4142 17.75 17.75 17.4142 17.75 17C17.75 16.5858 17.4142 16.25 17 16.25H9Z" fill="#DADADA"/>
</g>
</g>
</svg>
