<svg width="33" height="33" viewBox="0 0 33 33" fill="none" xmlns="http://www.w3.org/2000/svg">
<g id="Home 3">
<path id="Vector" fill-rule="evenodd" clip-rule="evenodd" d="M16.8074 0.828635C16.6025 0.821119 16.3975 0.821119 16.1926 0.828635C14.8402 0.878248 13.6224 1.33813 12.2871 2.10367C10.9859 2.8497 9.48781 3.93811 7.58705 5.31911L7.48373 5.39418C5.58294 6.77517 4.08486 7.86358 2.97324 8.87059C1.83255 9.90393 1.01885 10.92 0.55374 12.1909C0.483284 12.3835 0.419911 12.5785 0.36375 12.7757C-0.00698768 14.0772 0.0540621 15.3775 0.369515 16.884C0.676928 18.3521 1.24915 20.1132 1.97519 22.3477L2.01466 22.4692C2.74067 24.7036 3.31288 26.4647 3.92709 27.8331C4.55737 29.2373 5.27229 30.3252 6.33726 31.1602C6.49859 31.2867 6.6645 31.4073 6.83466 31.5216C7.90611 32.2416 9.09798 32.5877 10.5351 32.7618C12.064 32.947 13.9754 32.947 16.4268 32.947H16.5732C19.0246 32.947 20.9361 32.947 22.4649 32.7618C23.902 32.5877 25.0939 32.2416 26.1654 31.5216C26.3355 31.4073 26.5014 31.2867 26.6628 31.1602C27.7277 30.3252 28.4426 29.2373 29.0729 27.8331C29.6871 26.4647 30.2594 24.7036 30.9854 22.4691L31.0249 22.3476C31.7508 20.1133 32.3231 18.352 32.6305 16.884C32.946 15.3775 33.007 14.0772 32.6363 12.7757C32.5801 12.5785 32.5167 12.3835 32.4463 12.1909C31.9812 10.92 31.1675 9.90393 30.0268 8.87059C28.9152 7.86357 27.4171 6.77517 25.5163 5.39417L25.4129 5.31909C23.5122 3.9381 22.0141 2.84969 20.7129 2.10367C19.3777 1.33813 18.1598 0.878248 16.8074 0.828635ZM16.2728 3.01466C16.4242 3.00911 16.5758 3.00911 16.7272 3.01466C17.5956 3.04652 18.4604 3.33377 19.6249 4.0014C20.8117 4.68179 22.2151 5.69961 24.1789 7.12638C26.1426 8.55316 27.5443 9.57337 28.5581 10.4918C29.5529 11.393 30.0934 12.1267 30.392 12.9427C30.4441 13.085 30.4909 13.2292 30.5324 13.3749C30.7705 14.2106 30.7645 15.1219 30.4894 16.4357C30.2091 17.7746 29.6748 19.4239 28.9247 21.7324C28.1746 24.041 27.6374 25.6893 27.0772 26.9373C26.5276 28.1619 25.9967 28.9027 25.313 29.4388C25.1937 29.5323 25.0711 29.6214 24.9453 29.706C24.5143 29.9956 24.0308 30.2106 23.4271 30.3675V26.4454C23.4271 22.6197 20.3257 19.5183 16.5 19.5183C12.6743 19.5183 9.57293 22.6197 9.57293 26.4454V30.3675C8.96923 30.2106 8.4857 29.9956 8.0547 29.706C7.92893 29.6214 7.8063 29.5323 7.68706 29.4388C7.00327 28.9027 6.47244 28.1619 5.92277 26.9373C5.3626 25.6893 4.82546 24.041 4.07536 21.7324C3.32526 19.4239 2.79094 17.7746 2.51058 16.4357C2.23547 15.1219 2.22953 14.2106 2.46757 13.3749C2.50908 13.2292 2.55592 13.085 2.608 12.9427C2.90663 12.1267 3.44707 11.393 4.44187 10.4918C5.45569 9.57337 6.85737 8.55316 8.82115 7.12638C10.7849 5.69961 12.1884 4.68179 13.3751 4.0014C14.5396 3.33377 15.4044 3.04652 16.2728 3.01466ZM16.5 21.7058C19.1176 21.7058 21.2396 23.8278 21.2396 26.4454V30.6776C20.0096 30.7583 18.4881 30.7595 16.5 30.7595C14.5119 30.7595 12.9904 30.7583 11.7604 30.6776V26.4454C11.7604 23.8278 13.8824 21.7058 16.5 21.7058Z" fill="#FCCF58"/>
</g>
</svg>
