<svg width="57" height="57" viewBox="0 0 57 57" fill="none" xmlns="http://www.w3.org/2000/svg">
<circle cx="28.35" cy="28.35" r="27.35" stroke="#FCCF58" stroke-width="2"/>
<path d="M22.9883 17.3078V24.1633H30.6242C31.9883 24.1633 33.0922 23.9102 33.9359 23.4039C34.7938 22.8836 35.2227 21.9695 35.2227 20.6617C35.2227 19.2133 34.6602 18.257 33.5352 17.793C32.5648 17.4695 31.3273 17.3078 29.8227 17.3078H22.9883ZM22.9883 29.3102V37.6H30.6242C31.9883 37.6 33.05 37.4172 33.8094 37.0516C35.1875 36.3766 35.8766 35.0828 35.8766 33.1703C35.8766 31.5531 35.2086 30.4422 33.8727 29.8375C33.1273 29.5 32.0797 29.3242 30.7297 29.3102H22.9883ZM31.8898 11.9078C35.7008 11.9641 38.4008 13.068 39.9898 15.2195C40.9461 16.5414 41.4242 18.1234 41.4242 19.9656C41.4242 21.8641 40.9461 23.3898 39.9898 24.543C39.4555 25.1898 38.668 25.7805 37.6273 26.3148C39.2164 26.8914 40.4117 27.8055 41.2133 29.057C42.0289 30.3086 42.4367 31.8273 42.4367 33.6133C42.4367 35.4555 41.9727 37.1078 41.0445 38.5703C40.4539 39.5406 39.7156 40.3562 38.8297 41.0172C37.8313 41.7766 36.65 42.2969 35.2859 42.5781C33.9359 42.8594 32.4664 43 30.8773 43H16.7867V11.9078H31.8898Z" fill="url(#paint0_linear_971_7930)"/>
<defs>
<linearGradient id="paint0_linear_971_7930" x1="13" y1="28" x2="45" y2="28" gradientUnits="userSpaceOnUse">
<stop stop-color="#FCCF58"/>
<stop offset="1" stop-color="#6F5308"/>
</linearGradient>
</defs>
</svg>
