<svg width="22" height="22" viewBox="0 0 22 22" fill="none" xmlns="http://www.w3.org/2000/svg">
<g id="Message 28">
<g id="Vector">
<path fill-rule="evenodd" clip-rule="evenodd" d="M3.42216 3.3986C7.6203 -0.799534 14.4268 -0.799534 18.625 3.3986C22.8231 7.59674 22.8231 14.4033 18.625 18.6014C17.3913 19.835 15.496 20.963 13.384 21.4682C11.2616 21.9759 8.86471 21.8653 6.70156 20.5286C6.58932 20.4592 6.51746 20.4149 6.46319 20.3832C6.42634 20.3618 6.40995 20.3536 6.40661 20.3519C6.37015 20.3377 6.35788 20.3362 6.35681 20.336C6.35509 20.3357 6.34144 20.3336 6.29977 20.3368C6.30706 20.3362 6.29965 20.3359 6.25539 20.3459C6.20838 20.3566 6.14651 20.3725 6.04211 20.3996L6.01562 20.4064C5.40923 20.5636 4.91729 20.6911 4.52127 20.7658C4.12297 20.8409 3.73644 20.881 3.3646 20.8053C2.28334 20.5852 1.43831 19.7402 1.21826 18.659C1.14259 18.2871 1.18265 17.9006 1.25776 17.5023C1.33244 17.1063 1.45994 16.6143 1.61712 16.0079L1.62399 15.9814C1.65106 15.877 1.667 15.8152 1.67762 15.7682C1.6876 15.724 1.68727 15.7166 1.68672 15.7239C1.68988 15.6827 1.68774 15.6689 1.68741 15.6668C1.6871 15.6647 1.68515 15.6517 1.67143 15.6166C1.66973 15.6132 1.66155 15.597 1.64023 15.5606C1.60871 15.5068 1.56453 15.4356 1.49523 15.3241C0.156653 13.1701 0.0173304 10.7994 0.514935 8.68213C1.00995 6.57586 2.14249 4.67827 3.42216 3.3986ZM17.5643 4.45926C13.9519 0.846913 8.09517 0.846913 4.48282 4.45926C3.3941 5.54798 2.40428 7.19937 1.97515 9.02531C1.54861 10.8402 1.68336 12.785 2.76926 14.5323C2.7791 14.5482 2.78898 14.564 2.79884 14.5798C2.90225 14.7457 3.00462 14.91 3.06326 15.0572C3.16817 15.3207 3.20401 15.5559 3.18232 15.8386C3.17023 15.9962 3.1276 16.1598 3.08673 16.3166C3.08313 16.3304 3.07955 16.3441 3.07601 16.3578C2.91033 16.997 2.79597 17.4399 2.73178 17.7803C2.66693 18.1241 2.6716 18.2786 2.68813 18.3598C2.78815 18.8513 3.17226 19.2354 3.66374 19.3354C3.74498 19.352 3.89943 19.3566 4.24331 19.2918C4.5837 19.2276 5.02655 19.1132 5.66577 18.9475C5.67946 18.944 5.69321 18.9404 5.70701 18.9368C5.86371 18.896 6.0271 18.8534 6.18421 18.8413C6.46656 18.8194 6.70004 18.8547 6.96333 18.959C7.11024 19.0172 7.27515 19.1194 7.44214 19.2229C7.45811 19.2328 7.47411 19.2427 7.49011 19.2526C9.23676 20.332 11.2034 20.4475 13.035 20.0093C14.8771 19.5687 16.5263 18.5788 17.5643 17.5407C21.1766 13.9284 21.1766 8.07161 17.5643 4.45926Z" fill="#FCFFFF"/>
<path d="M8.05301 10.8578C8.05301 11.4101 7.60529 11.8578 7.05301 11.8578C6.50072 11.8578 6.05301 11.4101 6.05301 10.8578C6.05301 10.3055 6.50072 9.85779 7.05301 9.85779C7.60529 9.85779 8.05301 10.3055 8.05301 10.8578Z" fill="#FCFFFF"/>
<path d="M12.053 10.8578C12.053 11.4101 11.6053 11.8578 11.053 11.8578C10.5007 11.8578 10.053 11.4101 10.053 10.8578C10.053 10.3055 10.5007 9.85779 11.053 9.85779C11.6053 9.85779 12.053 10.3055 12.053 10.8578Z" fill="#FCFFFF"/>
<path d="M16.053 10.8578C16.053 11.4101 15.6053 11.8578 15.053 11.8578C14.5007 11.8578 14.053 11.4101 14.053 10.8578C14.053 10.3055 14.5007 9.85779 15.053 9.85779C15.6053 9.85779 16.053 10.3055 16.053 10.8578Z" fill="#FCFFFF"/>
</g>
</g>
</svg>
