<svg width="43" height="43" viewBox="0 0 43 43" fill="none" xmlns="http://www.w3.org/2000/svg">
<path d="M21 0.721688C21.1547 0.632372 21.3453 0.632372 21.5 0.721688L38.903 10.7693C39.0577 10.8587 39.153 11.0237 39.153 11.2024V31.2976C39.153 31.4763 39.0577 31.6413 38.903 31.7307L21.5 41.7783C21.3453 41.8676 21.1547 41.8676 21 41.7783L3.59696 31.7307C3.44226 31.6413 3.34696 31.4763 3.34696 31.2976V11.2024C3.34696 11.0237 3.44226 10.8587 3.59696 10.7693L21 0.721688Z" stroke="#FCCF58"/>
<path d="M13.0679 16.4014C14.8175 16.4014 16.1847 17.0321 17.1694 18.2935C18.1623 19.5549 18.6587 21.1825 18.6587 23.1763C18.6587 25.2433 18.1704 26.9564 17.1938 28.3154C16.2173 29.6745 14.8542 30.354 13.1045 30.354C12.0059 30.354 11.1229 30.1343 10.4556 29.6948C10.0568 29.4344 9.62549 28.9787 9.16162 28.3276V30H5.75586V12.0312H9.22266V18.4277C9.66211 17.8092 10.1463 17.3372 10.6753 17.0117C11.3019 16.6048 12.0994 16.4014 13.0679 16.4014ZM12.1768 27.4854C13.0719 27.4854 13.7677 27.1232 14.2642 26.3989C14.7606 25.6746 15.0088 24.7225 15.0088 23.5425C15.0088 22.5985 14.8867 21.8172 14.6426 21.1987C14.1787 20.0269 13.3242 19.4409 12.0791 19.4409C10.8177 19.4409 9.95101 20.0146 9.479 21.1621C9.23486 21.7725 9.11279 22.5618 9.11279 23.5303C9.11279 24.6696 9.36507 25.6136 9.86963 26.3623C10.3742 27.111 11.1432 27.4854 12.1768 27.4854ZM27.1855 16.6943H30.7134L32.7397 26.2769L34.8149 16.6943H38.4404L34.583 30H31.0063L28.9189 20.3076L26.8071 30H23.1938L19.4585 16.6943H23.1938L25.269 26.2402L27.1855 16.6943Z" fill="#FCCF58"/>
</svg>
