<svg xmlns="http://www.w3.org/2000/svg" width="32" height="26" viewBox="0 0 32 26" fill="none">
  <path d="M7.49992 19.0209C6.91312 19.0209 6.43742 19.4966 6.43742 20.0834C6.43742 20.6702 6.91312 21.1459 7.49992 21.1459H10.3333C10.9201 21.1459 11.3958 20.6702 11.3958 20.0834C11.3958 19.4966 10.9201 19.0209 10.3333 19.0209H7.49992Z" fill="#FCFFFF"/>
  <path d="M14.5833 19.0209C13.9965 19.0209 13.5208 19.4966 13.5208 20.0834C13.5208 20.6702 13.9965 21.1459 14.5833 21.1459H20.2499C20.8367 21.1459 21.3124 20.6702 21.3124 20.0834C21.3124 19.4966 20.8367 19.0209 20.2499 19.0209H14.5833Z" fill="#FCFFFF"/>
  <path fill-rule="evenodd" clip-rule="evenodd" d="M23.5721 0.704282C22.3476 0.604236 20.8241 0.604242 18.8808 0.604248H13.119C11.1758 0.604242 9.65224 0.604236 8.42774 0.704282C7.18088 0.806155 6.15081 1.01703 5.21845 1.49209C3.68572 2.27306 2.43956 3.51921 1.6586 5.05195C0.974666 6.39424 0.828265 7.97003 0.786597 10.1464C0.770752 10.974 0.770752 11.9167 0.770752 12.9919V13.0476C0.770746 14.9909 0.77074 16.5144 0.870786 17.7389C0.972659 18.9858 1.18354 20.0159 1.6586 20.9482C2.43956 22.4809 3.68572 23.7271 5.21845 24.5081C6.15081 24.9831 7.18088 25.194 8.42774 25.2959C9.65222 25.3959 11.1757 25.3959 13.1189 25.3959H18.8808C20.824 25.3959 22.3476 25.3959 23.5721 25.2959C24.819 25.194 25.849 24.9831 26.7814 24.5081C28.3141 23.7271 29.5603 22.4809 30.3412 20.9482C30.8163 20.0159 31.0272 18.9858 31.1291 17.7389C31.2291 16.5144 31.2291 14.9909 31.2291 13.0477V12.9919C31.2291 11.9167 31.2291 10.974 31.2132 10.1464C31.1716 7.97003 31.0252 6.39424 30.3412 5.05195C29.5603 3.51921 28.3141 2.27306 26.7814 1.49209C25.849 1.01703 24.819 0.806155 23.5721 0.704282ZM6.18319 3.38548C6.76604 3.0885 7.48533 2.91336 8.60079 2.82222C9.72865 2.73007 11.1655 2.72925 13.1666 2.72925H18.8333C20.8343 2.72925 22.2712 2.73007 23.3991 2.82222C24.5145 2.91336 25.2338 3.0885 25.8167 3.38548C26.9495 3.96272 27.8706 4.88379 28.4479 6.01668C28.8078 6.72315 28.9801 7.60565 29.0536 9.10425H2.94628C3.01974 7.60565 3.19202 6.72315 3.55198 6.01668C4.12922 4.88379 5.05029 3.96272 6.18319 3.38548ZM2.89575 13.0001C2.89575 12.3558 2.89577 11.7686 2.89901 11.2292H29.1008C29.1041 11.7686 29.1041 12.3558 29.1041 13.0001C29.1041 15.0011 29.1033 16.438 29.0111 17.5659C28.92 18.6813 28.7448 19.4006 28.4479 19.9835C27.8706 21.1164 26.9495 22.0374 25.8167 22.6147C25.2338 22.9117 24.5145 23.0868 23.3991 23.1779C22.2712 23.2701 20.8343 23.2709 18.8333 23.2709H13.1666C11.1655 23.2709 9.72865 23.2701 8.60079 23.1779C7.48533 23.0868 6.76604 22.9117 6.18319 22.6147C5.05029 22.0374 4.12922 21.1164 3.55198 19.9835C3.255 19.4006 3.07986 18.6813 2.98873 17.5659C2.89658 16.438 2.89575 15.0011 2.89575 13.0001Z" fill="#FCFFFF"/>
</svg>