<svg xmlns="http://www.w3.org/2000/svg" width="24" height="24" viewBox="0 0 24 24" fill="none">
  <path d="M22.114 9.729L20.571 9C19.8234 10.6713 18.6084 12.0906 17.0723 13.0869C15.5363 14.0832 13.7448 14.6139 11.914 14.615C10.0831 14.6139 8.29171 14.0832 6.75567 13.0869C5.21963 12.0906 4.00457 10.6713 3.25699 9L1.71399 9.729C2.29812 10.9856 3.09597 12.1313 4.07199 13.115L2.44199 15.086L3.77199 16.2L5.39999 14.23C5.99999 14.659 6.64299 15.044 7.28599 15.344L6.42899 17.744L8.05699 18.344L8.91399 15.944C9.61006 16.159 10.3297 16.2886 11.057 16.33V18.9H12.771V16.33C13.4983 16.2886 14.2179 16.1589 14.914 15.944L15.771 18.344L17.401 17.744L16.543 15.344C17.229 15.044 17.829 14.659 18.429 14.23L20.057 16.201L21.386 15.087L19.757 13.116C20.743 12.13 21.557 11.015 22.114 9.729Z" fill="#E2E2E2"/>
</svg>