<svg width="56" height="56" viewBox="0 0 306 306" fill="none" xmlns="http://www.w3.org/2000/svg">
<g opacity="0.8">
<path d="M151.2 5.19615C152.314 4.55308 153.686 4.55307 154.8 5.19615L280.102 77.5392C281.216 78.1823 281.902 79.3708 281.902 80.6569V225.343C281.902 226.629 281.216 227.818 280.102 228.461L154.8 300.804C153.686 301.447 152.314 301.447 151.2 300.804L25.8981 228.461C24.7843 227.818 24.0981 226.629 24.0981 225.343V80.6569C24.0981 79.3708 24.7843 78.1823 25.8981 77.5392L151.2 5.19615Z" stroke="#FCCF58" stroke-width="7.2"/>
<path d="M92.5887 118.49C105.186 118.49 115.03 123.031 122.12 132.113C129.268 141.195 132.843 152.914 132.843 167.269C132.843 182.152 129.327 194.486 122.296 204.271C115.264 214.056 105.45 218.949 92.8523 218.949C84.9422 218.949 78.5848 217.367 73.7801 214.203C70.909 212.328 67.8035 209.046 64.4637 204.359V216.4H39.9422V87.0249H64.9031V133.08C68.0672 128.626 71.5535 125.228 75.3621 122.884C79.8738 119.955 85.616 118.49 92.5887 118.49ZM86.1727 198.294C92.618 198.294 97.6277 195.687 101.202 190.472C104.776 185.257 106.563 178.402 106.563 169.906C106.563 163.109 105.684 157.484 103.927 153.031C100.587 144.593 94.4344 140.375 85.4695 140.375C76.3875 140.375 70.1473 144.505 66.7488 152.767C64.991 157.162 64.1121 162.845 64.1121 169.818C64.1121 178.021 65.9285 184.818 69.5613 190.208C73.1941 195.599 78.7313 198.294 86.1727 198.294ZM194.236 120.599H219.636L234.226 189.593L249.168 120.599H275.271L247.498 216.4H221.746L206.716 146.615L191.511 216.4H165.496L138.601 120.599H165.496L180.437 189.33L194.236 120.599Z" fill="#FCCF58"/>
</g>
</svg>
