<svg
      xmlns="http://www.w3.org/2000/svg"
      width="18"
      height="22"
      fill="none"
      viewBox="0 0 18 22"
    >
      <path d="M14.9631 12.1902C14.9354 9.40337 17.2356 8.06677 17.3384 7.99929C16.0457 6.10908 14.0317 5.84972 13.3148 5.8202C11.6022 5.64626 9.97134 6.82903 9.10246 6.82903C8.23539 6.82903 6.893 5.84569 5.47279 5.87074C3.60452 5.89846 1.88246 6.95736 0.92104 8.62975C-1.01923 11.9957 0.42468 16.9839 2.31532 19.7156C3.23962 21.0509 4.3419 22.5534 5.78805 22.4983C7.18187 22.4433 7.70772 21.5969 9.39269 21.5969C11.0777 21.5969 11.5508 22.4983 13.0251 22.4702C14.5239 22.4429 15.4742 21.1094 16.3909 19.7689C17.4521 18.2176 17.889 16.7156 17.9149 16.6395C17.8822 16.6244 14.993 15.5176 14.9631 12.1902Z" fill="#FCFFFF" />
      <path d="M12.1931 4.01252C12.96 3.08152 13.4796 1.78785 13.3383 0.5C12.2315 0.544717 10.8918 1.23559 10.0972 2.16571C9.38531 2.99119 8.76284 4.30542 8.92968 5.57002C10.1643 5.66571 11.4235 4.94174 12.1931 4.01252Z" fill="#FCFFFF" />
</svg>