<svg
        xmlns="http://www.w3.org/2000/svg"
        width="16"
        height="16"
        fill="none"
        color="white"
        viewBox="0 0 16 16"
      >
        <path
          fill="currentcolor"
          fillRule="evenodd"
          d="M1.715 8.858l.475.317.003-.004a7.012 7.012 0 01.375-.476A8.706 8.706 0 013.715 7.59C4.722 6.784 6.172 6 8 6c1.83 0 3.279.784 4.286 1.59a8.71 8.71 0 011.147 1.105c.132.153.257.312.375.476l.003.004.475-.317.475-.317-.001-.002-.003-.004-.006-.01a8.724 8.724 0 00-.451-.576A9.847 9.847 0 0013 6.697c-1.135-.908-2.829-1.839-5-1.839-2.17 0-3.865.931-5 1.84-.47.377-.905.795-1.3 1.251a8.06 8.06 0 00-.45.576l-.007.01-.003.004v.001l.474.318zM8 10.572a1.713 1.713 0 100-3.427 1.713 1.713 0 000 3.428v-.001z"
          clipRule="evenodd"
        ></path>
</svg>