<svg width="150" height="50" viewBox="0 0 190 53" fill="none" xmlns="http://www.w3.org/2000/svg">
<path d="M26.7188 0.811899L48.4893 13.3811C48.6633 13.4816 48.7705 13.6673 48.7705 13.8683V39.0067C48.7705 39.2077 48.6633 39.3934 48.4893 39.4939L26.7188 52.0631C26.5447 52.1636 26.3303 52.1636 26.1562 52.0631L4.3857 39.4939C4.21167 39.3934 4.10445 39.2077 4.10445 39.0067V13.8683C4.10445 13.6673 4.21167 13.4816 4.3857 13.3811L26.1562 0.811899C26.3303 0.711418 26.5447 0.711418 26.7188 0.811899Z" stroke="#FCCF58" stroke-width="1.125"/>
<path d="M28.5062 17.3947C31.262 17.3947 33.4153 18.388 34.9662 20.3747C36.5299 22.3614 37.3118 24.9249 37.3118 28.0651C37.3118 31.3207 36.5427 34.0188 35.0046 36.1593C33.4666 38.2998 31.3196 39.3701 28.5639 39.3701C26.8336 39.3701 25.4429 39.024 24.3918 38.3318C23.7638 37.9217 23.0845 37.2039 22.3539 36.1785V38.8125H16.9898V10.5117H22.45V20.5862C23.1422 19.6121 23.9048 18.8687 24.7379 18.356C25.7249 17.7151 26.981 17.3947 28.5062 17.3947ZM27.1027 34.8519C28.5126 34.8519 29.6085 34.2816 30.3904 33.1408C31.1722 32.0001 31.5632 30.5004 31.5632 28.6419C31.5632 27.1551 31.3709 25.9246 30.9864 24.9505C30.2558 23.1048 28.91 22.1819 26.9489 22.1819C24.9622 22.1819 23.5972 23.0856 22.8538 24.8928C22.4692 25.8541 22.277 27.0974 22.277 28.6227C22.277 30.4171 22.6743 31.9039 23.469 33.0831C24.2637 34.2623 25.4749 34.8519 27.1027 34.8519ZM49.1266 21.8167C47.8577 21.8167 46.8707 22.214 46.1658 23.0087C45.4736 23.8033 45.0378 24.88 44.8584 26.2386H53.3755C53.2858 24.7903 52.8436 23.6944 52.0489 22.951C51.2671 22.1948 50.293 21.8167 49.1266 21.8167ZM49.1266 17.2985C50.8697 17.2985 52.4399 17.6254 53.837 18.2791C55.2341 18.9327 56.3876 19.9645 57.2977 21.3745C58.118 22.6177 58.6499 24.0597 58.8934 25.7003C59.0344 26.6616 59.0921 28.0459 59.0665 29.8531H44.7238C44.8007 31.9552 45.4608 33.4292 46.7041 34.2751C47.4603 34.8007 48.3703 35.0634 49.4342 35.0634C50.5621 35.0634 51.4786 34.743 52.1835 34.1021C52.568 33.756 52.9077 33.2754 53.2025 32.6602H58.7973C58.6563 33.9034 58.009 35.166 56.8555 36.4477C55.061 38.4857 52.5488 39.5046 49.3188 39.5046C46.6528 39.5046 44.3008 38.6459 42.2629 36.9283C40.2249 35.2108 39.2059 32.4166 39.2059 28.5458C39.2059 24.9185 40.1224 22.1371 41.9552 20.2017C43.801 18.2662 46.1914 17.2985 49.1266 17.2985ZM70.6506 21.8167C69.3816 21.8167 68.3947 22.214 67.6897 23.0087C66.9976 23.8033 66.5618 24.88 66.3824 26.2386H74.8995C74.8098 24.7903 74.3676 23.6944 73.5729 22.951C72.7911 22.1948 71.8169 21.8167 70.6506 21.8167ZM70.6506 17.2985C72.3937 17.2985 73.9638 17.6254 75.3609 18.2791C76.758 18.9327 77.9116 19.9645 78.8216 21.3745C79.6419 22.6177 80.1739 24.0597 80.4174 25.7003C80.5584 26.6616 80.6161 28.0459 80.5904 29.8531H66.2478C66.3247 31.9552 66.9848 33.4292 68.2281 34.2751C68.9843 34.8007 69.8943 35.0634 70.9582 35.0634C72.0861 35.0634 73.0025 34.743 73.7075 34.1021C74.092 33.756 74.4317 33.2754 74.7265 32.6602H80.3213C80.1803 33.9034 79.533 35.166 78.3794 36.4477C76.585 38.4857 74.0728 39.5046 70.8428 39.5046C68.1768 39.5046 65.8248 38.6459 63.7868 36.9283C61.7489 35.2108 60.7299 32.4166 60.7299 28.5458C60.7299 24.9185 61.6463 22.1371 63.4792 20.2017C65.3249 18.2662 67.7154 17.2985 70.6506 17.2985ZM93.7895 17.8561H99.3458L102.537 32.9485L105.806 17.8561H111.516L105.441 38.8125H99.8073L96.5196 23.547L93.1935 38.8125H87.5026L81.6194 17.8561H87.5026L90.771 32.8909L93.7895 17.8561ZM125.715 28.6227C125.369 28.8406 125.016 29.02 124.657 29.161C124.311 29.2892 123.831 29.4109 123.215 29.5263L121.985 29.757C120.831 29.9621 120.005 30.212 119.505 30.5068C118.659 31.0067 118.236 31.7822 118.236 32.8332C118.236 33.7689 118.492 34.4482 119.005 34.8712C119.53 35.2813 120.165 35.4864 120.908 35.4864C122.087 35.4864 123.171 35.1403 124.157 34.4482C125.157 33.756 125.676 32.4935 125.715 30.6606V28.6227ZM122.389 26.0656C123.401 25.9374 124.125 25.7772 124.561 25.585C125.343 25.2517 125.734 24.7326 125.734 24.0276C125.734 23.1689 125.433 22.5793 124.83 22.2589C124.241 21.9256 123.369 21.759 122.216 21.759C120.921 21.759 120.005 22.0794 119.466 22.7203C119.082 23.1945 118.825 23.8354 118.697 24.6429H113.41C113.525 22.81 114.038 21.304 114.948 20.1248C116.397 18.2791 118.883 17.3562 122.408 17.3562C124.702 17.3562 126.74 17.8112 128.522 18.7213C130.303 19.6313 131.194 21.3488 131.194 23.8738V33.4869C131.194 34.1534 131.207 34.9609 131.233 35.9094C131.271 36.6271 131.38 37.1142 131.56 37.3705C131.739 37.6269 132.008 37.8384 132.367 38.005V38.8125H126.407C126.24 38.3895 126.125 37.9922 126.061 37.6205C125.997 37.2488 125.946 36.8258 125.907 36.3516C125.151 37.1719 124.279 37.8704 123.292 38.4472C122.113 39.1265 120.78 39.4662 119.293 39.4662C117.396 39.4662 115.826 38.9279 114.583 37.8512C113.352 36.7617 112.737 35.2236 112.737 33.2369C112.737 30.6606 113.731 28.7957 115.717 27.6422C116.807 27.0141 118.409 26.5655 120.524 26.2963L122.389 26.0656ZM141.279 38.8125H135.799V10.4733H141.279V38.8125ZM151.844 38.8125H146.364V10.4733H151.844V38.8125ZM165.081 21.8167C163.812 21.8167 162.825 22.214 162.121 23.0087C161.428 23.8033 160.993 24.88 160.813 26.2386H169.33C169.241 24.7903 168.798 23.6944 168.004 22.951C167.222 22.1948 166.248 21.8167 165.081 21.8167ZM165.081 17.2985C166.824 17.2985 168.395 17.6254 169.792 18.2791C171.189 18.9327 172.342 19.9645 173.252 21.3745C174.073 22.6177 174.605 24.0597 174.848 25.7003C174.989 26.6616 175.047 28.0459 175.021 29.8531H160.679C160.755 31.9552 161.416 33.4292 162.659 34.2751C163.415 34.8007 164.325 35.0634 165.389 35.0634C166.517 35.0634 167.433 34.743 168.138 34.1021C168.523 33.756 168.862 33.2754 169.157 32.6602H174.752C174.611 33.9034 173.964 35.166 172.81 36.4477C171.016 38.4857 168.504 39.5046 165.274 39.5046C162.608 39.5046 160.256 38.6459 158.218 36.9283C156.18 35.2108 155.161 32.4166 155.161 28.5458C155.161 24.9185 156.077 22.1371 157.91 20.2017C159.756 18.2662 162.146 17.2985 165.081 17.2985ZM176.185 21.9512V18.0483H179.107V12.2036H184.529V18.0483H187.932V21.9512H184.529V33.0255C184.529 33.8842 184.638 34.4225 184.856 34.6404C185.074 34.8455 185.74 34.9481 186.855 34.9481C187.022 34.9481 187.195 34.9481 187.374 34.9481C187.567 34.9352 187.752 34.9224 187.932 34.9096V39.0048L185.336 39.1009C182.747 39.1906 180.978 38.742 180.03 37.7551C179.415 37.127 179.107 36.1593 179.107 34.8519V21.9512H176.185Z" fill="url(#paint0_linear_1448_6163)"/>
<defs>
<linearGradient id="paint0_linear_1448_6163" x1="14.625" y1="25.3125" x2="189.625" y2="25.3125" gradientUnits="userSpaceOnUse">
<stop stop-color="#FCCF58"/>
<stop offset="1" stop-color="#6F5308"/>
</linearGradient>
</defs>
</svg>